# Blender 3.4.0
# www.blender.org
mtllib column_1.mtl
o column_1
v -0.075000 0.000000 0.150000
v -0.150000 0.000000 0.075000
v -0.150000 2.000000 0.075000
v -0.075000 2.000000 0.150000
v -0.150000 0.000000 -0.075000
v -0.075000 0.000000 -0.150000
v -0.075000 2.000000 -0.150000
v -0.150000 2.000000 -0.075000
v 0.150000 0.000000 0.075000
v 0.075000 0.000000 0.150000
v 0.075000 2.000000 0.150000
v 0.150000 2.000000 0.075000
v 0.075000 0.000000 -0.150000
v 0.150000 0.000000 -0.075000
v 0.150000 2.000000 -0.075000
v 0.075000 2.000000 -0.150000
vn -0.0000 -0.0000 1.0000
vn 1.0000 -0.0000 -0.0000
vn -0.0000 -0.0000 -1.0000
vn -0.7071 -0.0000 0.7071
vn -0.7071 -0.0000 -0.7071
vn 0.7071 -0.0000 -0.7071
vn 0.7071 -0.0000 0.7071
vn -1.0000 -0.0000 -0.0000
vt 0.212500 0.000000
vt 0.175000 0.000000
vt 0.212500 0.000000
vt 0.175000 1.000000
vt 0.212500 1.000000
vt 0.212500 1.000000
vt 0.175000 0.000000
vt 0.287500 0.000000
vt 0.212500 0.000000
vt 0.212500 1.000000
vt 0.175000 1.000000
vt 0.287500 1.000000
vt 0.212500 0.000000
vt 0.325000 0.000000
vt 0.287500 0.000000
vt 0.287500 1.000000
vt 0.212500 1.000000
vt 0.325000 1.000000
vt 0.287500 0.000000
vt 0.287500 0.000000
vt 0.325000 0.000000
vt 0.287500 1.000000
vt 0.325000 1.000000
vt 0.287500 1.000000
s 0
usemtl wall_5
f 10/15/1 11/16/1 4/6/1 1/1/1
f 14/20/2 15/22/2 12/17/2 9/13/2
f 6/9/3 7/10/3 16/24/3 13/19/3
f 1/1/4 4/6/4 3/4/4 2/2/4
f 7/10/5 6/9/5 5/7/5 8/11/5
f 15/23/6 14/21/6 13/19/6 16/24/6
f 11/16/7 10/15/7 9/14/7 12/18/7
f 2/3/8 3/5/8 8/12/8 5/8/8
