# Blender 3.4.0
# www.blender.org
mtllib crate_1.mtl
o crate_1
v -0.500000 0.000000 0.500000
v -0.500000 1.000000 0.500000
v -0.500000 0.000000 -0.500000
v -0.500000 1.000000 -0.500000
v 0.500000 0.000000 0.500000
v 0.500000 1.000000 0.500000
v 0.500000 0.000000 -0.500000
v 0.500000 1.000000 -0.500000
v -0.500000 0.062500 0.437500
v -0.500000 0.937500 0.437500
v -0.500000 0.937500 -0.437500
v -0.500000 0.062500 -0.437500
v -0.437500 0.062500 -0.500000
v -0.437500 0.937500 -0.500000
v 0.437500 0.937500 -0.500000
v 0.437500 0.062500 -0.500000
v 0.500000 0.062500 -0.437500
v 0.500000 0.937500 -0.437500
v 0.500000 0.937500 0.437500
v 0.500000 0.062500 0.437500
v 0.437500 0.062500 0.500000
v 0.437500 0.937500 0.500000
v -0.437500 0.937500 0.500000
v -0.437500 0.062500 0.500000
v -0.437500 0.000000 -0.437500
v 0.437500 0.000000 -0.437500
v 0.437500 0.000000 0.437500
v -0.437500 0.000000 0.437500
v 0.437500 1.000000 -0.437500
v -0.437500 1.000000 -0.437500
v -0.437500 1.000000 0.437500
v 0.437500 1.000000 0.437500
v -0.500000 0.000000 0.500000
v -0.500000 1.000000 0.500000
v -0.500000 0.000000 -0.500000
v -0.500000 1.000000 -0.500000
v -0.500000 1.000000 -0.500000
v -0.500000 0.000000 -0.500000
v 0.500000 0.000000 -0.500000
v 0.500000 1.000000 -0.500000
v 0.500000 1.000000 -0.500000
v 0.500000 0.000000 -0.500000
v 0.500000 0.000000 0.500000
v 0.500000 1.000000 0.500000
v 0.500000 1.000000 0.500000
v 0.500000 0.000000 0.500000
v -0.500000 0.000000 0.500000
v -0.500000 1.000000 0.500000
v 0.500000 0.000000 -0.500000
v -0.500000 0.000000 -0.500000
v -0.500000 0.000000 0.500000
v 0.500000 0.000000 0.500000
v -0.500000 1.000000 -0.500000
v 0.500000 1.000000 -0.500000
v 0.500000 1.000000 0.500000
v -0.500000 1.000000 0.500000
v 0.485000 0.937500 -0.437500
v 0.485000 0.062500 -0.437500
v 0.485000 0.062500 0.437500
v 0.485000 0.937500 0.437500
v -0.437500 0.990000 -0.437500
v 0.437500 0.990000 -0.437500
v 0.437500 0.990000 0.437500
v -0.437500 0.990000 0.437500
v -0.437500 0.937500 -0.490000
v -0.437500 0.062500 -0.490000
v 0.437500 0.062500 -0.490000
v 0.437500 0.937500 -0.490000
v 0.437500 0.937500 0.490000
v 0.437500 0.062500 0.490000
v -0.437500 0.062500 0.490000
v -0.437500 0.937500 0.490000
v -0.490000 0.062500 0.437500
v -0.490000 0.937500 0.437500
v -0.490000 0.062500 -0.437500
v -0.490000 0.937500 -0.437500
v 0.437500 0.010000 -0.437500
v -0.437500 0.010000 -0.437500
v -0.437500 0.010000 0.437500
v 0.437500 0.010000 0.437500
vn -0.0000 -0.0000 1.0000
vn -0.0000 -1.0000 -0.0000
vn -1.0000 -0.0000 -0.0000
vn 1.0000 -0.0000 -0.0000
vn -0.0000 -0.0000 -1.0000
vn -0.0000 1.0000 -0.0000
vt 0.000000 0.000000
vt 0.000000 1.000000
vt 0.000000 0.000000
vt 1.000000 0.000000
vt 0.000000 0.000000
vt 0.000000 1.000000
vt 1.000000 1.000000
vt 0.000000 1.000000
vt 0.000000 0.000000
vt 0.000000 0.000000
vt 1.000000 0.000000
vt 0.000000 1.000000
vt 1.000000 1.000000
vt 1.000000 0.000000
vt 0.000000 0.000000
vt 1.000000 0.000000
vt 1.000000 1.000000
vt 1.000000 1.000000
vt 0.000000 0.000000
vt 0.062500 0.062500
vt 0.000000 0.937500
vt 0.000000 0.062500
vt 0.062500 0.937500
vt 0.000000 0.937500
vt 0.000000 0.937500
vt 0.937500 0.937500
vt 0.000000 0.062500
vt 0.937500 0.062500
vt 0.000000 0.062500
vt 0.062500 0.062500
vt 0.062500 0.000000
vt 0.062500 0.000000
vt 0.062500 0.937500
vt 0.937500 0.000000
vt 0.937500 0.937500
vt 0.937500 0.000000
vt 0.937500 0.062500
vt 0.062500 0.000000
vt 0.937500 0.000000
vt 0.937500 0.062500
vt 1.000000 0.062500
vt 1.000000 0.062500
vt 0.937500 0.937500
vt 1.000000 0.937500
vt 0.062500 0.937500
vt 1.000000 0.937500
vt 0.062500 0.062500
vt 1.000000 0.062500
vt 1.000000 0.937500
vt 0.062500 1.000000
vt 0.937500 0.062500
vt 0.937500 1.000000
vt 0.937500 0.937500
vt 0.937500 1.000000
vt 0.062500 0.937500
vt 0.937500 1.000000
vt 0.062500 1.000000
vt 0.062500 0.062500
vt 0.062500 1.000000
vt 0.062500 0.937500
vt 0.062500 0.000000
vt 0.000000 0.062500
vt 0.000000 0.062500
vt 0.937500 0.937500
vt 0.937500 0.000000
vt 0.000000 0.937500
vt 0.937500 0.062500
vt 0.937500 0.000000
vt 0.062500 0.062500
vt 0.062500 0.000000
vt 0.000000 0.937500
vt 0.937500 0.937500
vt 0.937500 1.000000
vt 1.000000 0.062500
vt 1.000000 0.062500
vt 0.062500 0.937500
vt 0.062500 1.000000
vt 1.000000 0.937500
vt 0.062500 0.062500
vt 0.062500 1.000000
vt 0.937500 0.062500
vt 0.937500 1.000000
vt 1.000000 0.937500
vt 0.000000 0.000000
vt 0.000000 0.000000
vt 0.000000 1.000000
vt 1.000000 0.000000
vt 0.000000 0.000000
vt 1.000000 1.000000
vt 0.000000 1.000000
vt 0.000000 0.000000
vt 1.000000 0.000000
vt 1.000000 1.000000
vt 0.000000 0.000000
vt 1.000000 1.000000
vt 1.000000 0.000000
vt 0.000000 0.000000
vt 0.000000 0.000000
vt 0.000000 1.000000
vt 1.000000 1.000000
vt 1.000000 0.000000
vt 0.000000 0.000000
vt 0.000000 1.000000
vt 1.000000 1.000000
vt 0.000000 1.000000
vt 0.000000 0.000000
vt 1.000000 0.000000
vt 0.000000 0.000000
vt 0.000000 1.000000
vt 0.000000 0.000000
vt 1.000000 1.000000
vt 0.000000 0.000000
vt 1.000000 0.000000
vt 0.000000 0.000000
vt 0.985000 0.062500
vt 0.937500 0.937500
vt 0.985000 0.937500
vt 0.937500 0.062500
vt 0.985000 0.062500
vt 0.062500 0.062500
vt 0.985000 0.062500
vt 0.985000 0.937500
vt 0.062500 0.937500
vt 0.985000 0.937500
vt 0.990000 0.062500
vt 0.062500 0.937500
vt 0.062500 0.990000
vt 0.937500 0.937500
vt 0.937500 0.990000
vt 0.990000 0.062500
vt 0.937500 0.062500
vt 0.937500 0.990000
vt 0.990000 0.937500
vt 0.990000 0.937500
vt 0.062500 0.062500
vt 0.062500 0.990000
vt 0.062500 0.010000
vt 0.062500 0.937500
vt 0.937500 0.010000
vt 0.062500 0.062500
vt 0.062500 0.010000
vt 0.937500 0.062500
vt 0.062500 0.010000
vt 0.937500 0.010000
vt 0.937500 0.937500
vt 0.937500 0.010000
vt 0.937500 0.937500
vt 0.937500 0.990000
vt 0.062500 0.990000
vt 0.937500 0.062500
vt 0.937500 0.990000
vt 0.062500 0.062500
vt 0.062500 0.990000
vt 0.062500 0.937500
vt 0.937500 0.990000
vt 0.062500 0.990000
vt 0.062500 0.062500
vt 0.010000 0.937500
vt 0.010000 0.062500
vt 0.062500 0.937500
vt 0.010000 0.937500
vt 0.937500 0.062500
vt 0.010000 0.062500
vt 0.010000 0.937500
vt 0.937500 0.937500
vt 0.010000 0.062500
vt 0.010000 0.062500
vt 0.937500 0.937500
vt 0.937500 0.010000
vt 0.062500 0.937500
vt 0.062500 0.010000
vt 0.010000 0.062500
vt 0.062500 0.062500
vt 0.062500 0.010000
vt 0.010000 0.937500
vt 0.010000 0.937500
vt 0.937500 0.062500
vt 0.937500 0.010000
s 0
usemtl crate_1
f 11/25/1 12/29/1 75/163/1 76/164/1
f 14/32/2 15/36/2 68/146/2 65/137/2
f 18/42/2 19/46/2 60/124/2 57/115/2
f 21/50/3 22/54/3 69/148/3 70/149/3
f 26/63/3 27/66/3 80/176/3 77/167/3
f 30/75/4 31/78/4 64/134/4 61/125/4
f 1/1/1 2/2/1 34/86/1 33/84/1
f 2/3/1 4/9/1 36/88/1 34/85/1
f 4/7/1 3/4/1 35/87/1 36/89/1
f 3/4/1 1/1/1 33/84/1 35/87/1
f 3/5/1 4/8/1 37/90/1 38/91/1
f 4/8/1 8/18/1 40/93/1 37/90/1
f 8/18/1 7/16/1 39/92/1 40/93/1
f 7/16/1 3/5/1 38/91/1 39/92/1
f 7/16/1 8/18/1 41/95/1 42/96/1
f 8/19/1 6/15/1 44/98/1 41/94/1
f 6/12/1 5/10/1 43/97/1 44/99/1
f 5/10/1 7/16/1 42/96/1 43/97/1
f 5/11/1 6/13/1 45/100/1 46/101/1
f 6/13/1 2/2/1 48/103/1 45/100/1
f 2/2/1 1/1/1 47/102/1 48/103/1
f 1/1/1 5/11/1 46/101/1 47/102/1
f 3/6/1 7/17/1 49/104/1 50/105/1
f 7/17/1 5/11/1 52/107/1 49/104/1
f 5/11/1 1/1/1 51/106/1 52/107/1
f 1/1/1 3/6/1 50/105/1 51/106/1
f 8/18/1 4/8/1 53/109/1 54/111/1
f 4/9/1 2/3/1 56/114/1 53/108/1
f 2/3/1 6/14/1 55/113/1 56/114/1
f 6/15/1 8/19/1 54/110/1 55/112/1
f 10/23/3 9/20/3 33/84/3 34/86/3
f 9/20/3 12/28/3 35/87/3 33/84/3
f 11/26/3 10/23/3 34/86/3 36/89/3
f 12/28/3 11/26/3 36/89/3 35/87/3
f 14/33/5 13/30/5 38/91/5 37/90/5
f 13/30/5 16/37/5 39/92/5 38/91/5
f 15/35/5 14/33/5 37/90/5 40/93/5
f 16/37/5 15/35/5 40/93/5 39/92/5
f 18/43/4 17/40/4 42/96/4 41/95/4
f 17/40/4 20/47/4 43/97/4 42/96/4
f 19/45/4 18/43/4 41/95/4 44/99/4
f 20/47/4 19/45/4 44/99/4 43/97/4
f 22/53/1 21/51/1 46/101/1 45/100/1
f 21/51/1 24/58/1 47/102/1 46/101/1
f 23/55/1 22/53/1 45/100/1 48/103/1
f 24/58/1 23/55/1 48/103/1 47/102/1
f 26/64/2 25/60/2 50/105/2 49/104/2
f 25/60/2 28/69/2 51/106/2 50/105/2
f 27/67/2 26/64/2 49/104/2 52/107/2
f 28/69/2 27/67/2 52/107/2 51/106/2
f 30/76/6 29/72/6 54/111/6 53/109/6
f 29/72/6 32/81/6 55/113/6 54/111/6
f 31/79/6 30/76/6 53/109/6 56/114/6
f 32/81/6 31/79/6 56/114/6 55/113/6
f 58/118/4 57/116/4 60/123/4 59/120/4
f 17/41/1 18/44/1 57/117/1 58/119/1
f 19/46/5 20/48/5 59/121/5 60/124/5
f 20/49/6 17/41/6 58/119/6 59/122/6
f 62/128/6 61/126/6 64/135/6 63/131/6
f 29/73/1 30/77/1 61/127/1 62/129/1
f 31/80/5 32/82/5 63/132/5 64/136/5
f 32/83/3 29/74/3 62/130/3 63/133/3
f 66/140/5 65/138/5 68/145/5 67/142/5
f 13/31/4 14/34/4 65/139/4 66/141/4
f 15/36/3 16/38/3 67/143/3 68/146/3
f 16/39/6 13/31/6 66/141/6 67/144/6
f 70/150/1 69/147/1 72/154/1 71/152/1
f 23/56/4 24/59/4 71/153/4 72/155/4
f 24/59/6 21/52/6 70/151/6 71/153/6
f 22/54/2 23/57/2 72/156/2 69/148/2
f 73/157/3 74/160/3 76/165/3 75/162/3
f 12/29/6 9/21/6 73/158/6 75/163/6
f 10/24/2 11/27/2 76/166/2 74/161/2
f 9/22/5 10/24/5 74/161/5 73/159/5
f 78/170/2 77/168/2 80/177/2 79/173/2
f 25/61/1 26/65/1 77/169/1 78/171/1
f 27/68/5 28/70/5 79/174/5 80/178/5
f 28/71/4 25/62/4 78/172/4 79/175/4
