# Blender 3.4.0
# www.blender.org
mtllib doorway_slim_1_1.mtl
o doorway_slim_1_1
v 1.000000 0.000000 -0.050000
v -1.000000 0.000000 -0.050000
v 1.000000 2.000000 -0.050000
v -1.000000 2.000000 -0.050000
v 0.500000 1.700000 -0.050000
v -0.500000 1.700000 -0.050000
v 0.500000 0.000000 -0.050000
v -0.500000 0.000000 -0.050000
v 1.000000 -0.000000 0.050000
v -1.000000 -0.000000 0.050000
v 1.000000 2.000000 0.050000
v -1.000000 2.000000 0.050000
v 0.500000 1.700000 0.050000
v -0.500000 1.700000 0.050000
v 0.500000 -0.000000 0.050000
v -0.500000 -0.000000 0.050000
v -0.530000 -0.000000 0.070000
v -0.530000 -0.000000 -0.070000
v -0.470000 -0.000000 0.070000
v -0.470000 1.670000 0.070000
v -0.470000 -0.000000 -0.070000
v -0.470000 1.670000 -0.070000
v -0.530000 1.730000 0.070000
v -0.530000 1.730000 -0.070000
v 0.470000 1.670000 0.070000
v 0.470000 1.670000 -0.070000
v 0.530000 1.730000 0.070000
v 0.530000 1.730000 -0.070000
v 0.470000 -0.000000 0.070000
v 0.470000 -0.000000 -0.070000
v 0.530000 -0.000000 0.070000
v 0.530000 -0.000000 -0.070000
vn -0.0000 -0.0000 -1.0000
vn -0.0000 -0.0000 1.0000
vn 1.0000 -0.0000 -0.0000
vn -0.0000 1.0000 -0.0000
vn -0.0000 -1.0000 -0.0000
vn -1.0000 -0.0000 -0.0000
vt 0.000000 0.000000
vt 1.000000 0.000000
vt 0.000000 1.000000
vt 1.000000 1.000000
vt 0.250000 0.850000
vt 0.750000 0.850000
vt 0.250000 0.000000
vt 0.750000 0.000000
vt 0.000000 0.000000
vt 1.000000 0.000000
vt 0.000000 1.000000
vt 1.000000 1.000000
vt 0.250000 0.850000
vt 0.750000 0.850000
vt 0.250000 0.000000
vt 0.750000 0.000000
vt 0.193642 0.000000
vt 0.459538 0.000000
vt 0.193642 0.000000
vt 0.540462 0.000000
vt 0.228324 0.000000
vt 0.459538 0.000000
vt 0.459538 0.965318
vt 0.228324 0.965318
vt 0.228324 0.459538
vt 0.228324 0.000000
vt 0.540462 0.000000
vt 0.540462 0.965318
vt 0.228324 0.540462
vt 0.228324 0.965318
vt 0.193642 0.459538
vt 0.193642 1.000000
vt 0.459538 1.000000
vt 0.193642 0.540462
vt 0.193642 1.000000
vt 0.540462 1.000000
vt 0.771676 0.459538
vt 0.459538 0.965318
vt 0.771676 0.965318
vt 0.771676 0.540462
vt 0.771676 0.965318
vt 0.540462 0.965318
vt 0.806358 0.459538
vt 0.459538 1.000000
vt 0.806358 1.000000
vt 0.806358 0.540462
vt 0.806358 1.000000
vt 0.540462 1.000000
vt 0.459538 -0.000000
vt 0.771676 -0.000000
vt 0.771676 -0.000000
vt 0.540462 -0.000000
vt 0.459538 -0.000000
vt 0.806358 -0.000000
vt 0.806358 -0.000000
vt 0.540462 -0.000000
s 0
usemtl wall_5
f 2/2/1 4/4/1 3/3/1 1/1/1 7/7/1 5/5/1 6/6/1 8/8/1
f 10/10/2 16/16/2 14/14/2 13/13/2 15/15/2 9/9/2 11/11/2 12/12/2
usemtl door_frame_1
f 18/19/1 24/35/1 22/30/1 21/26/1
f 20/24/2 23/32/2 17/17/2 19/21/2
f 21/27/3 22/28/3 20/23/3 19/22/3
f 23/31/4 27/43/4 28/46/4 24/34/4
f 20/24/2 25/39/2 27/45/2 23/32/2
f 20/25/5 22/29/5 26/40/5 25/37/5
f 28/47/1 32/55/1 30/51/1 26/41/1
f 22/30/1 24/35/1 28/47/1 26/41/1
f 25/38/6 26/42/6 30/52/6 29/49/6
f 27/44/3 31/53/3 32/56/3 28/48/3
f 27/45/2 25/39/2 29/50/2 31/54/2
f 17/18/6 23/33/6 24/36/6 18/20/6
o door_slim_1_a_1
v 0.870000 0.000000 -0.030000
v 0.870000 1.670000 -0.030000
v 0.870000 0.000000 0.030000
v 0.870000 1.670000 0.030000
v 0.400000 0.000000 -0.030000
v 0.400000 1.670000 -0.030000
v 0.400000 0.000000 0.030000
v 0.400000 1.670000 0.030000
vn -0.0000 -0.0000 1.0000
vn -0.0000 -0.0000 -1.0000
vn -0.0000 -1.0000 -0.0000
vn -1.0000 -0.0000 -0.0000
vt 0.430769 0.000000
vt 0.430769 0.515625
vt 0.430769 1.000000
vt 0.430769 0.000000
vt 0.430769 0.484375
vt 0.430769 1.000000
vt 1.000000 0.000000
vt 1.000000 0.515625
vt 0.399038 0.000000
vt 1.000000 1.000000
vt 0.399038 1.000000
vt 1.000000 0.000000
vt 1.000000 0.484375
vt 0.475962 0.000000
vt 1.000000 1.000000
vt 0.475962 1.000000
s 0
usemtl door_1
f 35/60/7 36/62/7 40/71/7 39/68/7
f 37/63/8 38/66/8 34/59/8 33/57/8
f 35/61/9 39/69/9 37/64/9 33/58/9
f 39/70/10 40/72/10 38/67/10 37/65/10
o door_slim_1_b_1
v -0.870000 0.000000 0.030000
v -0.870000 1.670000 0.030000
v -0.870000 0.000000 -0.030000
v -0.870000 1.670000 -0.030000
v -0.400000 0.000000 0.030000
v -0.400000 1.670000 0.030000
v -0.400000 0.000000 -0.030000
v -0.400000 1.670000 -0.030000
vn -0.0000 -0.0000 -1.0000
vn -0.0000 -0.0000 1.0000
vn -0.0000 -1.0000 -0.0000
vn 1.0000 -0.0000 -0.0000
vt 0.430769 0.000000
vt 0.430769 0.515625
vt 0.430769 1.000000
vt 0.430769 0.000000
vt 0.430769 0.484375
vt 0.430769 1.000000
vt 1.000000 0.000000
vt 1.000000 0.515625
vt 0.399038 0.000000
vt 1.000000 1.000000
vt 0.399038 1.000000
vt 1.000000 0.000000
vt 1.000000 0.484375
vt 0.475962 0.000000
vt 1.000000 1.000000
vt 0.475962 1.000000
s 0
usemtl door_1
f 43/76/11 44/78/11 48/87/11 47/84/11
f 45/79/12 46/82/12 42/75/12 41/73/12
f 43/77/13 47/85/13 45/80/13 41/74/13
f 47/86/14 48/88/14 46/83/14 45/81/14
