# Blender 3.4.0
# www.blender.org
mtllib floor_2.mtl
o floor_2
v -1.000000 0.010000 -1.000000
v -1.000000 0.010000 1.000000
v 1.000000 0.010000 -1.000000
v 1.000000 0.010000 1.000000
v -1.000000 -0.010000 -1.000000
v -1.000000 -0.010000 1.000000
v 1.000000 -0.010000 -1.000000
v 1.000000 -0.010000 1.000000
vn -0.0000 1.0000 -0.0000
vn -0.0000 -1.0000 -0.0000
vn -0.0000 -0.0000 -1.0000
vn 1.0000 -0.0000 -0.0000
vn -0.0000 -0.0000 1.0000
vn -1.0000 -0.0000 -0.0000
vt 0.000000 0.000000
vt 0.000000 0.505000
vt 0.505000 0.000000
vt 1.000000 0.000000
vt 0.000000 0.505000
vt 0.505000 1.000000
vt 0.000000 1.000000
vt 1.000000 0.505000
vt 0.505000 0.000000
vt 1.000000 1.000000
vt 0.505000 1.000000
vt 1.000000 0.505000
vt 0.000000 0.000000
vt 0.000000 0.495000
vt 0.495000 0.000000
vt 1.000000 0.000000
vt 0.000000 0.495000
vt 0.495000 1.000000
vt 0.000000 1.000000
vt 1.000000 0.495000
vt 0.495000 0.000000
vt 1.000000 1.000000
vt 0.495000 1.000000
vt 1.000000 0.495000
s 0
usemtl floor_2
f 1/1/1 2/4/1 4/10/1 3/7/1
f 3/8/3 7/20/3 5/14/3 1/2/3
f 4/11/4 8/23/4 7/21/4 3/9/4
f 2/5/5 6/17/5 8/24/5 4/12/5
f 1/3/6 5/15/6 6/18/6 2/6/6
usemtl ceiling_1
f 5/13/2 7/19/2 8/22/2 6/16/2
