# Blender 3.4.0
# www.blender.org
mtllib tunnel_1.mtl
o tunnel_1
v -1.000000 0.000000 -1.000000
v 1.000000 0.000000 -1.000000
v -1.000000 0.000000 1.000000
v 1.000000 0.000000 1.000000
v -1.000000 0.800000 -1.000000
v -1.000000 1.666025 -0.500000
v -1.000000 1.300000 -0.866025
v 1.000000 0.800000 -1.000000
v 1.000000 1.800000 -0.000000
v 1.000000 1.300000 -0.866025
v 1.000000 1.666025 -0.500000
v -1.000000 0.800000 1.000000
v -1.000000 1.800000 0.000000
v -1.000000 1.300000 0.866025
v -1.000000 1.666025 0.500000
v 1.000000 0.800000 1.000000
v 1.000000 1.666025 0.500000
v 1.000000 1.300000 0.866025
vn -0.0000 -0.0000 -1.0000
vn -0.0000 -0.1305 -0.9914
vn -0.0000 -0.0000 1.0000
vn -0.0000 -0.1305 0.9914
vn -0.0000 -1.0000 -0.0000
vn -0.0000 -0.8660 0.5000
vn -0.0000 -0.5000 0.8660
vn -0.0000 -0.8660 -0.5000
vn -0.0000 -0.5000 -0.8660
vn -0.0000 1.0000 -0.0000
vt 0.890625 1.000000
vt 0.109375 1.000000
vt 0.890625 0.000000
vt 0.109375 0.000000
vt 0.890625 0.687500
vt 0.890625 0.685182
vt 0.890625 0.223437
vt 0.890625 0.258620
vt 0.890625 0.461745
vt 0.890625 0.482057
vt 0.109375 0.687500
vt 0.109375 0.685182
vt 0.109375 0.020312
vt 0.109375 0.979687
vt 0.109375 0.461745
vt 0.109375 0.482057
vt 0.109375 0.223438
vt 0.109375 0.258620
vt 0.890625 0.312500
vt 0.890625 0.314818
vt 0.890625 0.020312
vt 0.890625 0.979688
vt 0.890625 0.538255
vt 0.890625 0.517943
vt 0.890625 0.776563
vt 0.890625 0.741380
vt 0.109375 0.312500
vt 0.109375 0.314818
vt 0.109375 0.776562
vt 0.109375 0.741380
vt 0.109375 0.538255
vt 0.109375 0.517943
s 1
usemtl wall_5
f 4/4/1 3/3/1 12/19/2 16/27/2
f 1/1/3 2/2/3 8/11/4 5/5/4
f 13/21/5 6/7/6 11/17/6 9/13/5
f 6/8/6 7/9/7 10/15/7 11/18/6
f 7/10/7 5/6/4 8/12/4 10/16/7
f 9/14/5 17/29/8 15/25/8 13/22/5
f 17/30/8 18/31/9 14/23/9 15/26/8
f 18/32/9 16/28/2 12/20/2 14/24/9
f 2/2/10 1/1/10 3/3/10 4/4/10
