# Blender 3.4.0
# www.blender.org
mtllib tunnel_1_elbow.mtl
o tunnel_1_elbow
v -1.000000 0.000000 -1.000000
v -1.000000 0.800000 -1.000000
v -1.000000 1.800000 -0.000000
v -1.000000 1.300000 -0.866025
v -1.000000 1.666025 -0.500000
v -1.000000 0.800000 1.000000
v -1.000000 1.666025 0.500000
v -1.000000 1.300000 0.866025
v -0.482362 0.000000 -0.931852
v -0.482362 0.800000 -0.931852
v -0.741181 1.800000 0.034074
v -0.517037 1.300000 -0.802442
v -0.611771 1.666025 -0.448889
v -0.870590 1.666025 0.517037
v -0.965325 1.300000 0.870590
v -0.000000 0.000000 -0.732051
v -0.000000 0.800000 -0.732051
v -0.500000 1.800000 0.133975
v -0.066987 1.300000 -0.616025
v -0.250000 1.666025 -0.299038
v -0.750000 1.666025 0.566987
v -0.933013 1.300000 0.883975
v 0.414213 0.000000 -0.414213
v 0.414213 0.800000 -0.414213
v -0.292893 1.800000 0.292893
v 0.319479 1.300000 -0.319479
v 0.060660 1.666025 -0.060660
v -0.646447 1.666025 0.646447
v -0.905266 1.300000 0.905266
v 0.732050 0.000000 0.000000
v 0.732050 0.800000 0.000000
v -0.133975 1.800000 0.500000
v 0.616025 1.300000 0.066988
v 0.299038 1.666025 0.250000
v -0.566988 1.666025 0.750000
v -0.883975 1.300000 0.933013
v 0.931851 0.000000 0.482362
v 0.931851 0.800000 0.482362
v -0.034074 1.800000 0.741181
v 0.802441 1.300000 0.517037
v 0.448888 1.666025 0.611772
v -0.517037 1.666025 0.870591
v -0.870591 1.300000 0.965325
v 0.999999 0.000000 1.000000
v 0.999999 0.800000 1.000000
v -0.000000 1.800000 1.000000
v 0.866024 1.300000 1.000000
v 0.499999 1.666025 1.000000
v -0.500001 1.666025 1.000000
v -0.866026 1.300000 1.000000
v -1.000000 -0.000000 -1.000000
v -1.000000 -0.000000 1.000000
v -0.482362 -0.000000 -0.931851
v -0.000000 -0.000000 -0.732050
v 0.414213 -0.000000 -0.414213
v 0.732050 -0.000000 0.000000
v 0.931851 -0.000000 0.482362
v 0.999999 -0.000000 1.000000
vn -0.0678 -0.8547 0.5146
vn -0.1140 -0.4877 0.8655
vn -0.2255 -0.4909 0.8415
vn -0.1335 -0.8567 0.4982
vn 0.1126 -0.5063 -0.8550
vn 0.0635 -0.8736 -0.4825
vn 0.1251 -0.8753 -0.4670
vn 0.2227 -0.5096 -0.8311
vn -0.1295 -0.1281 0.9833
vn -0.2567 -0.1291 0.9578
vn 0.6784 -0.2823 -0.6783
vn -0.0028 -0.9998 0.0216
vn -0.0056 -0.9998 0.0208
vn -0.1305 -0.0000 0.9914
vn -0.2588 -0.0000 0.9659
vn 0.4302 -0.5095 -0.7452
vn -0.4958 -0.1291 0.8588
vn -0.4356 -0.4909 0.7545
vn -0.2579 -0.8567 0.4467
vn -0.0108 -0.9998 0.0187
vn 0.2417 -0.8753 -0.4187
vn -0.5000 -0.0000 0.8660
vn -0.0152 -0.9998 0.0152
vn 0.3419 -0.8753 -0.3419
vn -0.7071 -0.0000 0.7071
vn -0.7012 -0.1291 0.7012
vn 0.6084 -0.5096 -0.6084
vn -0.6160 -0.4909 0.6160
vn -0.3647 -0.8567 0.3647
vn 0.4187 -0.8753 -0.2417
vn 0.7452 -0.5095 -0.4302
vn -0.7545 -0.4909 0.4356
vn -0.4467 -0.8567 0.2579
vn -0.8588 -0.1291 0.4958
vn -0.0187 -0.9998 0.0108
vn -0.8660 -0.0000 0.5000
vn 0.8311 -0.5096 -0.2227
vn -0.9578 -0.1291 0.2567
vn -0.8415 -0.4909 0.2255
vn -0.4982 -0.8567 0.1335
vn -0.0208 -0.9998 0.0056
vn 0.4670 -0.8753 -0.1251
vn -0.9659 -0.0000 0.2588
vn -0.9833 -0.1281 0.1295
vn -0.8655 -0.4877 0.1140
vn -0.5146 -0.8547 0.0678
vn -0.0216 -0.9998 0.0028
vn 0.4825 -0.8736 -0.0635
vn -0.9914 -0.0000 0.1305
vn 0.8550 -0.5063 -0.1126
vn -0.0000 1.0000 -0.0000
vt 0.500000 0.835938
vt 0.499806 0.587655
vt 0.500000 0.585938
vt 1.251363 0.631991
vt 0.460364 0.047127
vt 0.493476 0.396770
vt 0.493087 0.415780
vt 0.476750 0.232708
vt 0.476218 0.203377
vt 1.255838 0.096411
vt 1.168441 1.201924
vt 1.093235 0.709736
vt 1.255838 1.201924
vt 1.093235 1.201924
vt 1.168441 0.709736
vt 1.246328 0.440177
vt 1.244007 0.467471
vt 1.244285 0.273850
vt 1.248026 0.260473
vt 0.335938 0.835938
vt 0.664062 0.835938
vt 0.336131 0.587655
vt 0.335938 0.585938
vt 0.662736 0.587655
vt 0.664062 0.585938
vt 1.165875 0.623729
vt 0.374779 0.047127
vt 0.625221 0.047127
vt 1.087128 0.672299
vt 0.344615 0.396770
vt 0.342851 0.415780
vt 0.661986 0.415780
vt 0.664040 0.396770
vt 0.353528 0.232708
vt 0.351113 0.203377
vt 0.648887 0.203377
vt 0.648532 0.232708
vt 1.205443 0.430345
vt 1.204480 0.460124
vt 1.118378 0.829007
vt 1.121962 0.857708
vt 1.230923 0.268547
vt 1.232400 0.252661
vt 1.152816 1.037861
vt 1.152161 1.021770
vt 0.500000 0.835938
vt 0.171875 0.835938
vt 0.498408 0.587655
vt 0.500000 0.585938
vt 0.171875 0.585938
vt 0.171703 0.587655
vt 0.539636 0.047127
vt 1.165253 0.664937
vt 1.000966 0.172921
vt 0.125353 0.047127
vt 0.506970 0.415780
vt 0.507835 0.396770
vt 0.164040 0.396770
vt 0.164860 0.415780
vt 0.523782 0.203377
vt 0.523343 0.232708
vt 0.148532 0.232708
vt 0.148333 0.203377
vt 1.157441 0.828542
vt 1.160087 0.857708
vt 1.032673 0.336984
vt 1.035317 0.365520
vt 1.160628 1.037861
vt 1.161138 1.021770
vt 1.064687 0.529583
vt 1.069798 0.545674
vt 0.000000 0.835938
vt 0.171875 0.836638
vt 0.000000 0.585938
vt 0.000172 0.587655
vt 0.173202 0.585437
vt 0.171875 0.586638
vt 1.087353 0.172921
vt 0.046522 0.047127
vt 0.210585 0.043700
vt 1.165875 0.672299
vt 0.007835 0.396770
vt 0.007015 0.415780
vt 0.171897 0.399132
vt 0.173951 0.421375
vt 0.023343 0.232708
vt 0.023542 0.203377
vt 0.187406 0.235069
vt 0.187605 0.207763
vt 1.079083 0.336984
vt 1.080516 0.365520
vt 1.205443 0.857708
vt 1.204481 0.829007
vt 1.074583 0.529583
vt 1.077610 0.545674
vt 1.230923 1.021770
vt 1.232400 1.037861
vt 0.335938 0.836638
vt 0.835938 0.835938
vt 0.337530 0.585437
vt 0.335938 0.586638
vt 0.835766 0.587655
vt 0.835938 0.585938
vt 0.289415 0.043700
vt 1.251363 0.664937
vt 0.789415 0.047127
vt 1.000966 0.672299
vt 0.328103 0.399132
vt 0.328968 0.421375
vt 0.828923 0.415780
vt 0.828103 0.396770
vt 0.312594 0.235069
vt 0.312395 0.207763
vt 0.812395 0.203377
vt 0.812594 0.232708
vt 1.246328 0.857708
vt 1.244008 0.828542
vt 1.032673 0.829007
vt 1.035317 0.857708
vt 1.244285 1.021770
vt 1.248025 1.037861
vt 1.069798 1.037861
vt 1.064687 1.021770
vt 0.664062 0.835938
vt 1.000000 0.835938
vt 0.664234 0.587655
vt 0.664062 0.585938
vt 1.001592 0.587655
vt 1.000000 0.585938
vt 0.710585 0.047127
vt 1.087353 0.664937
vt 0.960364 0.047127
vt 1.087128 0.172921
vt 0.671077 0.415780
vt 0.671897 0.396770
vt 0.993030 0.415780
vt 0.992165 0.396770
vt 0.687604 0.203377
vt 0.687406 0.232708
vt 0.976218 0.203377
vt 0.976657 0.232708
vt 1.079083 0.828542
vt 1.080516 0.857708
vt 1.118378 0.336984
vt 1.121962 0.365520
vt 1.077610 1.037861
vt 1.074583 1.021770
vt 1.152161 0.529583
vt 1.152816 0.545674
vt 0.835938 0.835938
vt 0.837264 0.587655
vt 0.835938 0.585938
vt 0.874779 0.047127
vt 1.165253 0.172921
vt 0.838014 0.415780
vt 0.835960 0.396770
vt 0.851113 0.203377
vt 0.851468 0.232708
vt 1.157441 0.336984
vt 1.160087 0.365520
vt 1.161138 0.529583
vt 1.160629 0.545674
vt 0.833333 0.833333
vt 0.833333 0.166667
vt 0.660787 0.810617
vt 0.500000 0.744017
vt 0.361929 0.638071
vt 0.255983 0.500000
vt 0.189383 0.339213
vt 0.166667 0.166667
s 1
usemtl wall_5
f 5/8/1 4/6/2 12/30/3 13/34/4
f 8/18/5 7/16/6 14/38/7 15/42/8
f 4/7/2 2/2/9 10/22/10 12/31/3
f 6/10/11 8/19/5 15/43/8
f 7/17/6 3/4/12 11/26/13 14/39/7
f 3/5/12 5/9/1 13/35/4 11/27/13
f 2/3/9 1/1/14 9/20/15 10/23/10
f 6/11/11 15/44/8 22/68/16
f 12/32/3 10/24/10 17/48/17 19/56/18
f 11/28/13 13/36/4 20/60/19 18/52/20
f 14/40/7 11/29/13 18/53/20 21/64/21
f 10/25/10 9/21/15 16/46/22 17/49/17
f 15/45/8 14/41/7 21/65/21 22/69/16
f 13/37/4 12/33/3 19/57/18 20/61/19
f 21/66/21 18/54/20 25/78/23 28/90/24
f 17/50/17 16/47/22 23/72/25 24/74/26
f 22/70/16 21/67/21 28/91/24 29/94/27
f 20/62/19 19/58/18 26/82/28 27/86/29
f 6/12/11 22/71/16 29/95/27
f 19/59/18 17/51/17 24/75/26 26/83/28
f 18/55/20 20/63/19 27/87/29 25/79/23
f 29/96/27 28/92/24 35/116/30 36/120/31
f 27/88/29 26/84/28 33/108/32 34/112/33
f 6/13/11 29/97/27 36/121/31
f 26/85/28 24/76/26 31/100/34 33/109/32
f 25/80/23 27/89/29 34/113/33 32/104/35
f 28/93/24 25/81/23 32/105/35 35/117/30
f 24/77/26 23/73/25 30/98/36 31/101/34
f 6/14/11 36/122/31 43/146/37
f 33/110/32 31/102/34 38/126/38 40/134/39
f 32/106/35 34/114/33 41/138/40 39/130/41
f 35/118/30 32/107/35 39/131/41 42/142/42
f 31/103/34 30/99/36 37/124/43 38/127/38
f 36/123/31 35/119/30 42/143/42 43/147/37
f 34/115/33 33/111/32 40/135/39 41/139/40
f 40/136/39 38/128/38 45/151/44 47/155/45
f 39/132/41 41/140/40 48/157/46 46/153/47
f 42/144/42 39/133/41 46/154/47 49/159/48
f 38/129/38 37/125/43 44/150/49 45/152/44
f 43/148/37 42/145/42 49/160/48 50/161/50
f 41/141/40 40/137/39 47/156/45 48/158/46
f 6/15/11 43/149/37 50/162/50
f 52/164/51 58/170/51 57/169/51 56/168/51 55/167/51 54/166/51 53/165/51 51/163/51
