# Blender 3.4.0
# www.blender.org
mtllib vent_fps_1.mtl
o vent_fps_1
v 0.500000 0.000000 0.500000
v -0.500000 -0.000000 0.500000
v -0.500000 -0.000000 -0.500000
v 0.500000 0.000000 -0.500000
v 0.500000 -0.050000 0.500000
v -0.500000 -0.050000 0.500000
v -0.500000 -0.050000 -0.500000
v 0.500000 -0.050000 -0.500000
vn -0.0000 -0.0000 -1.0000
vn -0.0000 -0.0000 1.0000
vn 1.0000 -0.0000 -0.0000
vn -1.0000 -0.0000 -0.0000
vn -0.0000 -1.0000 -0.0000
vt 0.750000 0.500000
vt 0.250000 0.500000
vt 0.250000 0.500000
vt 0.250000 0.500000
vt 0.750000 0.500000
vt 0.750000 0.500000
vt 0.750000 0.525000
vt 0.250000 0.525000
vt 0.000000 1.000000
vt 0.250000 0.525000
vt 0.000000 0.000000
vt 0.250000 0.525000
vt 0.750000 0.525000
vt 1.000000 0.000000
vt 0.750000 0.525000
vt 1.000000 1.000000
s 0
usemtl wall_7
f 3/4/1 4/6/1 8/15/1 7/12/1
f 1/1/2 2/3/2 6/10/2 5/7/2
f 4/6/3 1/2/3 5/8/3 8/15/3
f 2/3/4 3/5/4 7/13/4 6/10/4
usemtl vent_1
f 5/9/5 6/11/5 7/14/5 8/16/5
