# Blender 3.4.0
# www.blender.org
mtllib wall_6.mtl
o wall_6
v 1.000000 0.000000 -0.100000
v -1.000000 0.000000 -0.100000
v 1.000000 2.000000 -0.000000
v -1.000000 2.000000 0.000000
v 1.000000 1.000000 -0.000000
v -1.000000 1.000000 0.000000
v 1.000000 0.500000 -0.100000
v -1.000000 0.500000 -0.100000
v 0.666667 0.000000 -0.150000
v 0.333333 0.000000 -0.100000
v -0.000000 0.000000 -0.150000
v -0.333333 0.000000 -0.100000
v -0.666667 0.000000 -0.150000
v -0.666667 2.000000 0.000000
v -0.333333 2.000000 0.000000
v 0.000000 2.000000 0.000000
v 0.333333 2.000000 0.000000
v 0.666667 2.000000 0.000000
v -0.666667 1.000000 -0.050000
v -0.333333 1.000000 0.000000
v 0.000000 1.000000 -0.050000
v 0.333333 1.000000 -0.000000
v 0.666667 1.000000 -0.050000
v -0.666667 0.500000 -0.150000
v -0.333333 0.500000 -0.100000
v 0.000000 0.500000 -0.150000
v 0.333333 0.500000 -0.100000
v 0.666667 0.500000 -0.150000
vn -0.0000 -0.0000 -1.0000
vn -0.1483 -0.0000 -0.9889
vn -0.1476 0.0984 -0.9841
vn -0.0000 0.0976 -0.9952
vn -0.1103 0.1092 -0.9879
vn -0.0000 0.1116 -0.9938
vn -0.0748 0.0249 -0.9969
vn -0.0000 0.0250 -0.9997
vn 0.1103 0.1092 -0.9879
vn 0.0748 0.0249 -0.9969
vn -0.0000 0.1098 -0.9940
vn 0.1476 0.0984 -0.9841
vn -0.0000 0.0995 -0.9950
vn 0.1483 -0.0000 -0.9889
vt 0.000000 0.000000
vt 1.000000 0.000000
vt 0.000000 1.000000
vt 1.000000 1.000000
vt 0.000000 0.500000
vt 1.000000 0.500000
vt 0.000000 0.250000
vt 1.000000 0.250000
vt 0.166667 0.000000
vt 0.333333 0.000000
vt 0.500000 0.000000
vt 0.666667 0.000000
vt 0.833333 0.000000
vt 0.833333 1.000000
vt 0.666667 1.000000
vt 0.500000 1.000000
vt 0.333333 1.000000
vt 0.166667 1.000000
vt 0.833333 0.500000
vt 0.666667 0.500000
vt 0.500000 0.500000
vt 0.333333 0.500000
vt 0.166667 0.500000
vt 0.833333 0.250000
vt 0.666667 0.250000
vt 0.500000 0.250000
vt 0.333333 0.250000
vt 0.166667 0.250000
s 1
usemtl wall_6
f 13/13/1 2/2/2 8/8/3 24/24/4
f 24/24/4 8/8/3 6/6/5 19/19/6
f 19/19/6 6/6/5 4/4/7 14/14/8
f 5/5/9 23/23/6 18/18/8 3/3/10
f 23/23/6 22/22/11 17/17/8 18/18/8
f 22/22/11 21/21/6 16/16/8 17/17/8
f 21/21/6 20/20/11 15/15/8 16/16/8
f 20/20/11 19/19/6 14/14/8 15/15/8
f 7/7/12 28/28/4 23/23/6 5/5/9
f 28/28/4 27/27/13 22/22/11 23/23/6
f 27/27/13 26/26/4 21/21/6 22/22/11
f 26/26/4 25/25/13 20/20/11 21/21/6
f 25/25/13 24/24/4 19/19/6 20/20/11
f 1/1/14 9/9/1 28/28/4 7/7/12
f 9/9/1 10/10/1 27/27/13 28/28/4
f 10/10/1 11/11/1 26/26/4 27/27/13
f 11/11/1 12/12/1 25/25/13 26/26/4
f 12/12/1 13/13/1 24/24/4 25/25/13
