# Blender 3.4.0
# www.blender.org
mtllib wall_4.mtl
o wall_4
v 1.000000 0.000000 -0.050000
v -1.000000 -0.000000 -0.050000
v 1.000000 2.000000 -0.050000
v -1.000000 2.000000 -0.050000
v 1.000000 0.000000 0.050000
v -1.000000 -0.000000 0.050000
v 1.000000 2.000000 0.050000
v -1.000000 2.000000 0.050000
vn -0.0000 -0.0000 -1.0000
vn -0.0000 -0.0000 1.0000
vt 0.000000 0.000000
vt 1.000000 0.000000
vt 0.000000 1.000000
vt 1.000000 1.000000
vt 0.000000 0.000000
vt 1.000000 0.000000
vt 0.000000 1.000000
vt 1.000000 1.000000
s 0
usemtl wall_8
f 2/2/1 4/4/1 3/3/1 1/1/1
f 6/6/2 5/5/2 7/7/2 8/8/2
