# Blender 3.4.0
# www.blender.org
mtllib tunnel_1_equal_tee.mtl
o tunnel_1_equal_tee
v -1.000000 0.000000 -2.000000
v 1.000000 0.000000 -2.000000
v -1.000000 0.800000 -2.000000
v 0.000000 1.800000 -2.000000
v -0.866025 1.300000 -2.000000
v -0.500000 1.666025 -2.000000
v 1.000000 0.800000 -2.000000
v 0.500000 1.666025 -2.000000
v 0.866025 1.300000 -2.000000
v 1.000000 0.800000 -1.000000
v 2.000000 0.000000 -1.000000
v 2.000000 0.000000 1.000000
v 2.000000 0.800000 -1.000000
v 2.000000 1.800000 -0.000000
v 2.000000 1.300000 -0.866025
v 2.000000 1.666025 -0.500000
v 2.000000 0.800000 1.000000
v 2.000000 1.666025 0.500000
v 2.000000 1.300000 0.866025
v 1.000000 -0.000000 1.000000
v 1.000000 0.800000 1.000000
v 1.000000 0.000000 -1.000000
v 0.500000 1.666025 -0.500000
v 0.866025 1.300000 -0.866025
v 0.000000 1.800000 0.000000
v 0.866025 1.300000 0.866025
v 1.000000 0.000000 2.000000
v -1.000000 0.000000 2.000000
v 1.000000 0.800000 2.000000
v 0.500000 1.666025 2.000000
v 0.866025 1.300000 2.000000
v -1.000000 0.800000 2.000000
v 0.000000 1.800000 2.000000
v -0.866025 1.300000 2.000000
v -0.500000 1.666025 2.000000
v 0.500000 1.666025 0.500000
v -0.866025 1.300000 0.000000
v -1.000000 0.000000 0.000000
v -1.000000 0.800000 -0.000000
v -0.500000 1.666025 0.000000
vn -0.9901 -0.1403 -0.0000
vn -0.9914 -0.1305 -0.0000
vn -1.0000 -0.0000 -0.0000
vn 1.0000 -0.0000 -0.0000
vn 0.9914 -0.1305 -0.0000
vn 0.5000 -0.8660 -0.0000
vn -0.0000 -1.0000 -0.0000
vn 0.0864 -0.9963 -0.0000
vn 0.8660 -0.5000 -0.0000
vn -0.5000 -0.8660 -0.0000
vn -0.4000 -0.9165 -0.0000
vn -0.8660 -0.5000 -0.0000
vn -0.8310 -0.5563 -0.0000
vn -0.0000 -0.1403 -0.9901
vn -0.0000 -0.1305 -0.9914
vn -0.0000 -0.0000 -1.0000
vn -0.0000 -0.0000 1.0000
vn -0.0000 -0.1305 0.9914
vn -0.0000 -0.1403 0.9901
vn -0.0000 -0.9165 0.4000
vn -0.0000 -0.8660 0.5000
vn -0.0000 -0.5563 0.8310
vn -0.0000 -0.5000 0.8660
vn -0.0000 -0.8660 -0.5000
vn -0.0000 -0.9165 -0.4000
vn -0.0000 -0.5000 -0.8660
vn -0.0000 -0.5563 -0.8310
vn 0.9884 -0.1516 -0.0000
vn -0.0212 -0.9973 0.0706
vn 0.3323 -0.9329 0.1385
vn 0.7863 -0.6163 0.0425
vn -0.0000 1.0000 -0.0000
vt 0.109375 1.000000
vt 1.500000 -0.000000
vt 0.109375 0.000000
vt 1.500000 1.000000
vt 0.109375 0.687500
vt 0.109375 0.685182
vt 0.109375 0.020312
vt 0.109375 0.979688
vt 0.109375 0.461745
vt 0.109375 0.482057
vt 0.109375 0.223438
vt 0.109375 0.258620
vt 0.109375 0.312500
vt 0.109375 0.314818
vt 0.109375 0.776563
vt 0.109375 0.741380
vt 0.109375 0.538255
vt 0.109375 0.517943
vt 0.500000 0.312500
vt 0.500000 0.314818
vt 0.500000 0.687500
vt 0.500000 0.685182
vt 0.109375 1.000000
vt 0.109375 0.000000
vt 0.109375 0.687500
vt 0.109375 0.685182
vt 0.109375 0.020312
vt 0.109375 0.979688
vt 0.109375 0.461745
vt 0.109375 0.482057
vt 0.109375 0.223437
vt 0.109375 0.258620
vt 0.109375 0.312500
vt 0.109375 0.314818
vt 0.109375 0.776563
vt 0.109375 0.741380
vt 0.109375 0.538255
vt 0.109375 0.517943
vt 0.500000 1.000000
vt 0.500000 0.000000
vt 0.000000 1.000000
vt 0.500000 0.312500
vt 0.500000 0.314818
vt 0.500000 0.687500
vt 0.500000 0.685182
vt 0.500000 0.000000
vt 0.500000 1.000000
vt 1.000000 1.000000
vt 0.695312 0.776563
vt 0.695312 0.741380
vt 0.695312 0.223438
vt 0.695312 0.258620
vt 0.552334 0.538255
vt 0.552334 0.517943
vt 0.552334 0.461745
vt 0.552334 0.482057
vt 0.890625 0.020313
vt 0.890625 0.979688
vt 0.109375 0.020312
vt 0.109375 0.979687
vt 0.552334 0.538255
vt 0.552334 0.517943
vt 0.447666 0.461745
vt 0.447666 0.482057
vt 0.890625 1.000000
vt -0.500000 1.000000
vt 0.890625 0.000000
vt -0.500000 0.000000
vt 0.890625 0.687500
vt 0.890625 0.685182
vt 0.890625 0.223438
vt 0.890625 0.258620
vt 0.890625 0.461745
vt 0.890625 0.482057
vt 0.890625 0.312500
vt 0.890625 0.314818
vt 0.890625 0.020313
vt 0.890625 0.979688
vt 0.890625 0.538255
vt 0.890625 0.517943
vt 0.890625 0.776563
vt 0.890625 0.741380
vt 0.695312 0.776562
vt 0.695312 0.741380
vt 0.304687 0.223437
vt 0.304687 0.258620
vt 0.890625 0.461745
vt 0.890625 0.482057
vt 0.109375 0.538255
vt 0.109375 0.517943
vt 0.890625 1.000000
vt 0.109375 -0.000000
vt 0.500000 0.000000
vt 0.890625 0.687500
vt 0.890625 0.685182
vt 0.109375 0.312500
vt 0.109375 0.314818
vt 0.890625 0.223438
vt 0.890625 0.258620
vt 0.109375 0.776562
vt 0.109375 0.741380
s 1
usemtl wall_5
f 10/19/1 7/13/2 2/3/3 22/46/3
f 38/91/4 1/1/4 3/5/5 39/94/5
f 40/98/6 6/11/6 4/7/7 25/57/8
f 37/87/9 5/9/9 6/12/6 40/99/6
f 39/95/5 3/6/5 5/10/9 37/88/9
f 4/8/7 8/15/10 23/49/11 25/58/8
f 8/16/10 9/17/12 24/53/13 23/50/11
f 24/54/13 9/18/12 7/14/2 10/20/1
f 21/42/14 17/33/15 12/24/16 20/40/16
f 22/47/17 11/23/17 13/25/18 10/21/19
f 23/51/20 16/31/21 14/27/7 25/57/7
f 24/55/22 15/29/23 16/32/21 23/52/20
f 10/22/19 13/26/18 15/30/23 24/56/22
f 14/28/7 18/35/24 36/83/25 25/58/7
f 18/36/24 19/37/26 26/61/27 36/84/25
f 26/62/27 19/38/26 17/34/15 21/43/14
f 38/92/4 39/96/28 32/75/5 28/67/4
f 21/44/1 20/39/3 27/65/3 29/69/2
f 25/59/29 36/85/11 30/71/10 33/77/7
f 30/72/10 36/86/11 26/63/13 31/73/12
f 31/74/12 26/64/13 21/45/1 29/70/2
f 40/100/30 25/60/29 33/78/7 35/81/6
f 37/89/31 40/101/30 35/82/6 34/79/9
f 32/76/5 39/97/28 37/90/31 34/80/9
f 22/48/32 2/4/32 1/2/32 38/93/32
f 38/93/32 28/68/32 27/66/32 20/41/32
f 20/40/32 12/24/32 11/23/32 22/47/32
f 38/93/32 20/41/32 22/48/32
