# Blender 3.4.0
# www.blender.org
mtllib button_off.mtl
o button_off
v 0.100000 -0.150000 -0.020000
v -0.100000 -0.150000 -0.020000
v 0.100000 0.150000 -0.020000
v -0.100000 0.150000 -0.020000
v 0.100000 0.150000 0.000000
v 0.100000 -0.150000 0.000000
v -0.100000 -0.150000 0.000000
v -0.100000 0.150000 0.000000
vn -0.0000 -0.0000 -1.0000
vn -0.0000 -0.0000 1.0000
vn -0.0000 -1.0000 -0.0000
vn -1.0000 -0.0000 -0.0000
vn 1.0000 -0.0000 -0.0000
vn -0.0000 1.0000 -0.0000
vt 0.000000 0.000000
vt 0.000000 0.062500
vt 0.906250 1.000000
vt 1.000000 0.000000
vt 1.000000 0.062500
vt 0.906250 1.000000
vt 0.000000 1.000000
vt 0.906250 0.000000
vt 0.000000 0.062500
vt 1.000000 1.000000
vt 0.906250 0.000000
vt 1.000000 0.062500
vt 0.000000 1.000000
vt 1.000000 0.000000
vt 0.000000 0.000000
vt 0.000000 0.000000
vt 1.000000 1.000000
vt 1.000000 0.000000
vt 1.000000 1.000000
vt 1.000000 1.000000
vt 1.000000 0.000000
s 0
usemtl button_off
f 1/1/1 2/4/1 4/10/1 3/7/1
f 6/16/2 5/13/2 8/20/2 7/18/2
f 1/2/3 6/16/3 7/18/3 2/5/3
f 2/6/4 7/19/4 8/21/4 4/11/4
f 3/8/5 5/14/5 6/17/5 1/3/5
f 4/12/6 8/21/6 5/15/6 3/9/6
