# Blender 3.4.0
# www.blender.org
mtllib wall_4_b.mtl
o wall_4_b
v 0.950000 0.000000 -2.000000
v -1.000000 -0.000000 -0.050000
v 0.950000 2.000000 -2.000000
v -1.000000 2.000000 -0.050000
v 1.050000 0.000000 -2.000000
v -1.000000 -0.000000 0.050000
v 1.050000 2.000000 -2.000000
v -1.000000 2.000000 0.050000
v 0.000000 0.000000 0.050000
v 1.050000 -0.000000 -1.000000
v 1.050000 2.000000 -1.000000
v 0.000000 2.000000 0.050000
v 0.950000 -0.000000 -1.000000
v 0.000000 0.000000 -0.050000
v 0.000000 2.000000 -0.050000
v 0.950000 2.000000 -1.000000
vn -1.0000 -0.0000 -0.0000
vn 1.0000 -0.0000 -0.0000
vn -0.0000 -0.0000 1.0000
vn 0.7071 -0.0000 0.7071
vn -0.0000 -0.0000 -1.0000
vn -0.7071 -0.0000 -0.7071
vt 1.335876 1.000000
vt -0.335876 1.000000
vt 1.335876 0.000000
vt -0.335876 -0.000000
vt 1.371231 0.000000
vt -0.371231 -0.000000
vt 1.371231 1.000000
vt -0.371231 1.000000
vt 0.128769 0.000000
vt 0.871231 0.000000
vt 0.871231 1.000000
vt 0.128769 1.000000
vt 0.835876 1.000000
vt 0.164124 1.000000
vt 0.164124 0.000000
vt 0.835876 0.000000
s 0
usemtl wall_5
f 13/13/1 16/16/1 3/3/1 1/1/1
f 10/10/2 5/5/2 7/7/2 11/11/2
f 6/6/3 9/9/3 12/12/3 8/8/3
f 9/9/4 10/10/4 11/11/4 12/12/4
f 2/2/5 4/4/5 15/15/5 14/14/5
f 14/14/6 15/15/6 16/16/6 13/13/6
