# Blender 3.4.0
# www.blender.org
mtllib wall_3.mtl
o wall_3
v 1.000000 0.000000 -0.100000
v -1.000000 0.000000 -0.100000
v 1.000000 2.000000 0.000000
v -1.000000 2.000000 0.000000
v 1.000000 1.000000 -0.000000
v -1.000000 1.000000 0.000000
v 1.000000 0.500000 -0.100000
v -1.000000 0.500000 -0.100000
vn -0.0000 0.0985 -0.9951
vn -0.0000 -0.0000 -1.0000
vt 0.000000 0.000000
vt 1.000000 0.000000
vt 0.000000 1.000000
vt 1.000000 1.000000
vt 0.000000 0.500000
vt 1.000000 0.500000
vt 0.000000 0.250000
vt 1.000000 0.250000
s 1
usemtl wall_3
f 5/5/1 6/6/1 4/4/2 3/3/2
f 7/7/1 8/8/1 6/6/1 5/5/1
f 1/1/2 2/2/2 8/8/1 7/7/1
